HIERARCHY
ROOT Hips
{
	OFFSET 0.00000 0.00000 0.00000
	CHANNELS 6 Xposition Yposition Zposition Zrotation Yrotation Xrotation 
	JOINT LHipJoint
	{
		OFFSET 0 0 0
		CHANNELS 3 Zrotation Yrotation Xrotation
		JOINT LeftHip
		{
			OFFSET 1.62329 -1.80800 0.67318
			CHANNELS 3 Zrotation Yrotation Xrotation
			JOINT LeftKnee
			{
				OFFSET 2.57139 -7.06484 0.00000
				CHANNELS 3 Zrotation Yrotation Xrotation
				JOINT LeftAnkle
				{
					OFFSET 2.52017 -6.92413 0.00000
					CHANNELS 3 Zrotation Yrotation Xrotation
					JOINT LeftToe
					{
						OFFSET 0.23295 -0.64001 2.10214
						CHANNELS 3 Zrotation Yrotation Xrotation
						End Site
						{
							OFFSET 0.00000 -0.00000 1.10139
						}
					}
				}
			}
		}
	}
	JOINT RHipJoint
	{
		OFFSET 0 0 0
		CHANNELS 3 Zrotation Yrotation Xrotation
		JOINT RightHip
		{
			OFFSET -1.48061 -1.80800 0.67318
			CHANNELS 3 Zrotation Yrotation Xrotation
			JOINT RightKnee
			{
				OFFSET -2.63258 -7.23296 0.00000
				CHANNELS 3 Zrotation Yrotation Xrotation
				JOINT RightAnkle
				{
					OFFSET -2.54779 -7.00000 0.00000
					CHANNELS 3 Zrotation Yrotation Xrotation
					JOINT RightToe
					{
						OFFSET -0.23067 -0.63376 2.12161
						CHANNELS 3 Zrotation Yrotation Xrotation
						End Site
						{
							OFFSET -0.00000 -0.00000 1.11000
						}
					}
				}
			}
		}
	}
	JOINT lowerback
	{
		OFFSET 0 0 0
		CHANNELS 3 Zrotation Yrotation Xrotation
		JOINT Chest
		{
			OFFSET -0.02108 2.07573 -0.16981
			CHANNELS 3 Zrotation Yrotation Xrotation
			JOINT Chest2
			{
				OFFSET 0.05070 2.08439 -0.03141
				CHANNELS 3 Zrotation Yrotation Xrotation
				JOINT lowerneck
				{
					OFFSET 0 0 0
					CHANNELS 3 Zrotation Yrotation Xrotation
					JOINT Neck
					{
						OFFSET -0.10731 1.60408 0.31370
						CHANNELS 3 Zrotation Yrotation Xrotation
						JOINT Head
						{
							OFFSET 0.08411 1.65679 -0.30822
							CHANNELS 3 Zrotation Yrotation Xrotation
							End Site
							{
								OFFSET 0.03911 1.69149 -0.14146
							}
						}
					}
				}
				JOINT LeftCollar
				{
					OFFSET 0 0 0
					CHANNELS 3 Zrotation Yrotation Xrotation
					JOINT LeftShoulder
					{
						OFFSET 3.52315 0.73219 -0.54694
CHANNELS 3 Zrotation Xrotation Yrotation
						JOINT LeftElbow
						{
OFFSET 0 -5.324620 -0.000000
CHANNELS 3 Zrotation Xrotation Yrotation
							JOINT LeftWrist
							{
OFFSET 0 -3.484020 -0.000000
CHANNELS 3 Zrotation Xrotation Yrotation
								JOINT lhand
								{
									OFFSET 0 0 0
CHANNELS 3 Zrotation Xrotation Yrotation
									JOINT LFingers
									{
OFFSET 0 -0.572480 -0.000000
CHANNELS 3 Zrotation Xrotation Yrotation
										End Site
										{
OFFSET 0 -0.461540 -0.000000
										}
									}
								}
								JOINT LThumb
								{
OFFSET 0 0.000000 0.000000
CHANNELS 3 Zrotation Xrotation Yrotation
									End Site
									{
OFFSET 0 -0.468590 0.468590
									}
								}
							}
						}
					}
				}
				JOINT RightCollar
				{
					OFFSET 0 0 0
					CHANNELS 3 Zrotation Yrotation Xrotation
					JOINT RightShoulder
					{
						OFFSET -3.41766 0.93592 -0.10019
CHANNELS 3 Zrotation Xrotation Yrotation
						JOINT RightElbow
						{
OFFSET 0 -5.335890 -0.000000
CHANNELS 3 Zrotation Xrotation Yrotation
							JOINT RightWrist
							{
OFFSET 0 -3.641340 -0.000000
CHANNELS 3 Zrotation Xrotation Yrotation
								JOINT rhand
								{
									OFFSET 0 0 0
CHANNELS 3 Zrotation Xrotation Yrotation
									JOINT RFingers
									{
OFFSET 0 -0.734810 -0.000000
CHANNELS 3 Zrotation Xrotation Yrotation
										End Site
										{
OFFSET 0 -0.592420 -0.000000
										}
									}
								}
								JOINT RThumb
								{
OFFSET 0 0.000000 0.000000
CHANNELS 3 Zrotation Xrotation Yrotation
									End Site
									{
OFFSET 0 -0.601470 0.601470
									}
								}
							}
						}
					}
				}
			}
		}
	}
}
MOTION
Frames: 12
Frame Time: 0.008333333333333333
0.666000 17.662700 13.933400 -179.626000 -38.194500 -175.568000 0.000000 0.000000 0.000000 -21.378000 -3.270800 -16.910000 4.056900 12.235700 36.570900 0.428400 8.223300 -18.003000 0.757600 -5.558900 -15.509700 0.000000 0.000000 0.000000 22.166100 2.303700 -18.681700 -3.489200 -11.447800 33.805400 -1.596400 0.883800 -23.636900 -0.924800 -6.126600 17.152100 0.130000 2.785000 4.630900 2.017800 3.765500 -0.848100 1.716000 1.880000 -3.596600 -5.266000 9.490800 -18.407000 4.855500 13.124700 31.763300 4.738700 5.437800 12.919200 0.000000 0.000000 0.000000 -0.467500 -1.577300 -16.380800 13.537300 -22.069400 2.651800 15.591800 13.250200 -25.512300 0.000000 0.000000 0.000000 -7.125000 0.000000 0.000000 -15.232600 55.682600 4.061100 0.000000 0.000000 0.000000 -4.896800 7.526500 14.076600 -18.493800 -28.784800 -4.784600 -16.262600 18.951700 -3.911600 0.000000 0.000000 0.000000 7.125000 0.000000 -0.000000 7.832600 25.894700 3.657800
0.682601 17.685414 13.927814 -179.395803 -37.574886 -175.807546 0.000000 0.000000 0.000000 -20.812206 -4.188956 -17.958272 4.607206 12.927097 39.096557 0.355166 8.288522 -17.196207 0.654394 -5.172157 -14.400603 0.000000 0.000000 0.000000 22.478430 2.189101 -18.433303 -3.414436 -11.337466 33.426549 -1.556315 -0.217131 -23.683685 -0.353660 -3.820552 10.572505 0.254370 2.758682 5.038611 2.123333 3.743007 -0.822578 1.737765 1.865045 -3.798372 -6.014511 8.463635 -18.819923 5.304130 11.666289 33.216792 4.943103 4.627051 13.629427 0.000000 0.000000 0.000000 -0.697135 -1.448221 -17.755925 14.092155 -22.866235 2.863826 17.017321 12.361632 -27.042356 0.000000 0.000000 0.000000 -7.125000 0.000000 0.000000 -14.611001 57.472377 4.527373 0.000000 0.000000 0.000000 -5.299452 7.324991 14.152216 -18.338384 -28.588227 -4.710054 -16.289994 19.201179 -3.727704 0.000000 0.000000 0.000000 7.125000 0.000000 0.000000 7.822036 26.083835 3.617840
0.693490 17.701782 13.918054 -179.347881 -36.824616 -176.084332 0.000000 0.000000 0.000000 -20.384925 -5.273728 -18.703304 5.166806 13.568920 41.537891 0.195025 8.633001 -15.462224 0.297717 -3.508445 -9.697685 0.000000 0.000000 0.000000 22.583600 2.452158 -17.865546 -3.299187 -11.164309 32.835944 -1.427449 0.001182 -22.606712 -0.784139 -5.648232 15.768328 0.115319 2.687897 5.370211 2.277586 3.640132 -0.597885 1.973445 1.815287 -3.768311 -6.497111 7.433284 -18.963712 5.017768 10.326988 34.145196 4.780248 3.829376 14.172217 0.000000 0.000000 0.000000 -1.067420 -1.601372 -16.780230 14.182509 -22.994994 2.899077 15.876708 12.348912 -25.485683 0.000000 0.000000 0.000000 -7.125000 0.000000 0.000000 -14.927889 55.713499 3.988447 0.000000 0.000000 0.000000 -5.847411 6.906702 14.403302 -18.278962 -28.512931 -4.681682 -16.685398 19.156262 -3.961682 0.000000 0.000000 0.000000 7.125000 0.000000 0.000000 7.511674 25.835018 3.516001
0.695302 17.701070 13.909738 -179.111426 -35.849681 -176.304778 0.000000 0.000000 0.000000 -19.870988 -6.071607 -19.696794 5.684470 14.115224 43.701351 0.121452 8.664010 -14.415725 0.344646 -3.771292 -10.434256 0.000000 0.000000 0.000000 22.795089 2.840794 -17.510653 -3.223302 -11.047988 32.441897 -1.357079 0.356596 -21.923265 -0.905071 -6.062513 16.965985 0.276750 2.694622 5.512458 2.303846 3.656412 -0.470493 1.905556 1.817997 -3.708432 -6.876251 6.377449 -18.759047 4.914642 8.773211 34.963504 4.597675 2.988461 14.615607 0.000000 0.000000 0.000000 -0.867754 -0.950924 -17.615029 14.847929 -23.933782 3.164050 15.985696 11.120406 -26.143265 0.000000 0.000000 0.000000 -7.125000 0.000000 0.000000 -15.173132 56.377536 4.302473 0.000000 0.000000 0.000000 -6.056951 6.418440 14.118087 -18.168119 -28.371905 -4.628901 -16.570687 19.056547 -4.129474 0.000000 0.000000 0.000000 7.125000 0.000000 0.000000 7.589347 25.663542 3.583824
0.689247 17.695019 13.908972 -179.333583 -34.710540 -176.263062 0.000000 0.000000 0.000000 -19.809432 -6.776968 -20.420104 6.018946 14.446645 45.057807 0.171604 7.588024 -13.949953 0.630202 -5.057625 -14.077994 0.000000 0.000000 0.000000 22.561946 3.012483 -17.424942 -3.223656 -11.048572 32.443755 -1.295003 0.876860 -21.250580 -0.834249 -5.795749 16.200796 0.103059 2.678517 5.631276 2.271884 3.619631 -0.298511 1.971547 1.801794 -3.604674 -7.543752 5.394465 -18.458758 4.783481 7.402546 35.687825 4.457316 2.190449 14.982486 0.000000 0.000000 0.000000 -1.107499 -0.635988 -17.352875 15.274290 -24.526778 3.339025 16.630432 10.710465 -26.102299 0.000000 0.000000 0.000000 -7.125000 0.000000 0.000000 -14.485879 56.470457 4.133769 0.000000 0.000000 0.000000 -6.248152 5.955926 13.740166 -18.224474 -28.443578 -4.655685 -20.081798 19.342198 -4.012772 0.000000 0.000000 0.000000 7.125000 0.000000 0.000000 4.948386 25.704806 2.320690
0.669087 17.731947 13.901494 -179.374042 -33.478980 -176.170860 0.000000 0.000000 0.000000 -19.586611 -7.517020 -20.784072 6.090227 14.515222 45.342807 0.358686 4.713966 -14.047725 1.094555 -6.648255 -18.677410 0.000000 0.000000 0.000000 22.491473 3.498677 -17.238731 -3.213302 -11.032571 32.389835 -1.270873 0.667934 -21.110170 -0.363538 -3.872763 10.718886 0.018068 2.632810 5.404391 2.259090 3.542735 -0.074358 2.028878 1.762825 -3.246811 -7.972176 4.462612 -18.342391 4.484968 6.065286 36.558583 4.218455 1.400033 15.500740 0.000000 0.000000 0.000000 -1.267265 -0.661902 -17.003199 15.504991 -24.844812 3.435287 16.774006 10.673228 -26.928169 0.000000 0.000000 0.000000 -7.125000 0.000000 0.000000 -14.799031 57.308813 4.527888 0.000000 0.000000 0.000000 -6.361185 5.210398 13.563559 -18.128368 -28.321134 -4.610043 -19.100104 19.238554 -3.277152 0.000000 0.000000 0.000000 7.125000 0.000000 0.000000 5.715623 26.502485 2.574531
0.645422 17.731743 13.902072 -179.464962 -32.051107 -176.129265 0.000000 0.000000 0.000000 -19.402631 -8.340074 -20.898555 5.979306 14.408139 44.898273 0.481623 2.086821 -14.042529 1.314177 -7.259982 -20.488314 0.000000 0.000000 0.000000 22.311109 4.164430 -17.022899 -3.190790 -10.997652 32.272054 -1.206725 0.966289 -20.473861 -0.328688 -3.682488 10.185370 -0.055542 2.646550 5.518907 2.209976 3.554504 -0.002139 2.014906 1.768948 -3.238221 -8.394802 3.427288 -17.998886 3.906967 4.574467 37.508571 3.805397 0.487800 16.054814 0.000000 0.000000 0.000000 -1.556273 -0.504438 -16.279200 15.600286 -24.975759 3.475466 15.856118 10.505588 -26.288099 0.000000 0.000000 0.000000 -7.125000 0.000000 0.000000 -15.388002 56.492023 4.409095 0.000000 0.000000 0.000000 -6.231238 5.222860 13.079293 -18.777495 -29.141202 -4.922035 -16.462270 19.326369 -2.542954 0.000000 0.000000 0.000000 7.125000 0.000000 0.000000 7.760954 27.304913 3.364733
0.609851 17.737995 13.892423 -180.043992 -30.561779 -175.835292 0.000000 0.000000 0.000000 -19.707198 -9.425438 -20.580482 5.746952 14.178294 43.956846 0.592455 -0.431421 -14.410843 1.470836 -7.663107 -21.695640 0.000000 0.000000 0.000000 21.598532 4.702851 -16.945347 -3.222550 -11.046881 32.438178 -1.154095 1.692442 -19.816600 -0.421581 -4.166662 11.546105 -0.584334 2.584392 5.470563 2.087249 3.436072 0.117685 2.198985 1.718143 -3.106462 -9.094817 2.600682 -17.860320 3.619093 3.404515 38.404991 3.608390 -0.275811 16.597774 0.000000 0.000000 0.000000 -1.656839 0.050419 -16.124756 15.778642 -25.219619 3.551177 15.834728 9.590589 -24.963847 0.000000 0.000000 0.000000 -7.125000 0.000000 0.000000 -14.698875 55.194414 3.738869 0.000000 0.000000 0.000000 -6.674725 4.472771 13.409179 -18.576582 -28.889089 -4.824607 -16.617807 19.062051 -2.600464 0.000000 0.000000 0.000000 7.125000 0.000000 0.000000 7.638764 27.244005 3.321906
0.573556 17.736509 13.883276 -180.067122 -28.932118 -175.564486 0.000000 0.000000 0.000000 -19.405708 -10.517934 -20.444736 5.425660 13.847200 42.629771 0.664697 -3.698356 -14.602658 1.621297 -8.027367 -22.797574 0.000000 0.000000 0.000000 21.422180 5.393856 -17.164254 -3.251326 -11.091197 32.588004 -1.096328 2.172754 -19.185852 -0.323240 -3.652051 10.100093 -0.665551 2.550875 5.158222 2.018105 3.384946 0.131700 2.191827 1.693706 -2.915034 -9.383662 1.932697 -17.314935 3.041926 2.420187 38.746067 3.205262 -0.891175 16.760268 0.000000 0.000000 0.000000 -1.751189 0.414359 -15.741017 15.833709 -25.294576 3.574626 15.657878 9.402735 -24.508932 0.000000 0.000000 0.000000 -7.125000 0.000000 0.000000 -14.646596 54.714460 3.552134 0.000000 0.000000 0.000000 -6.768463 3.961227 13.490210 -18.672079 -29.009050 -4.870852 -16.847513 18.400508 -3.066991 0.000000 0.000000 0.000000 7.125000 0.000000 0.000000 7.436538 26.758586 3.318013
0.525854 17.733221 13.880583 -180.128088 -27.205416 -175.017830 0.000000 0.000000 0.000000 -19.124674 -11.769384 -20.445415 5.031991 13.418786 40.958936 0.702584 -6.347287 -14.971641 1.808842 -8.455297 -24.106035 0.000000 0.000000 0.000000 21.096894 6.148543 -17.620398 -3.246814 -11.084227 32.564477 -1.014634 2.707555 -18.322292 -0.302126 -3.533388 9.767482 -0.692526 2.523724 4.634463 1.969731 3.348479 0.071434 2.181620 1.676649 -2.680422 -10.075338 1.277027 -17.177569 2.849088 1.503454 39.204877 3.065573 -1.484910 17.068707 0.000000 0.000000 0.000000 -1.859062 1.091490 -15.711214 16.029966 -25.561256 3.658862 15.677194 9.231009 -24.502180 0.000000 0.000000 0.000000 -7.125000 0.000000 0.000000 -14.623819 54.711637 3.545416 0.000000 0.000000 0.000000 -6.872712 3.526246 13.469356 -18.923399 -29.323405 -4.993264 -17.304296 18.961863 -2.910460 0.000000 0.000000 0.000000 7.125000 0.000000 0.000000 7.097589 26.915116 3.138551
0.470127 17.697435 13.865004 -180.111523 -25.991136 -175.257850 0.000000 0.000000 0.000000 -18.912894 -13.092263 -19.250686 4.512250 12.810616 38.666761 0.609742 -9.071921 -14.381457 1.579164 -7.927948 -22.495591 0.000000 0.000000 0.000000 20.973819 6.208827 -17.280318 -3.250399 -11.089723 32.583105 -0.948143 3.804452 -17.519421 -0.506596 -4.562152 12.664034 -0.609325 2.289071 4.738383 2.017824 3.033926 0.235287 2.207153 1.514962 -2.553977 -10.243751 0.968986 -16.645395 2.196996 1.141013 39.076684 2.711957 -1.781837 16.919634 0.000000 0.000000 0.000000 -2.180694 1.265077 -14.839297 15.780082 -25.221549 3.551736 15.324231 9.471273 -24.262590 0.000000 0.000000 0.000000 -7.125000 0.000000 0.000000 -14.859470 54.409691 3.493930 0.000000 0.000000 0.000000 -7.315793 2.888965 14.201615 -18.906819 -29.302676 -4.985205 -17.934368 18.669016 -2.716106 0.000000 0.000000 0.000000 7.125000 0.000000 0.000000 6.627353 27.109571 2.897217
0.414315 17.708423 13.839768 -180.391858 -24.697981 -175.486903 0.000000 0.000000 0.000000 -19.062771 -14.272744 -17.618805 3.897666 12.020318 35.807448 0.503613 -10.807077 -13.766872 1.450916 -7.613777 -21.547134 0.000000 0.000000 0.000000 20.567079 6.424069 -16.856814 -3.294992 -11.157836 32.814077 -0.953509 4.022702 -17.543772 -0.288695 -3.451477 9.538631 -0.822850 2.125315 5.047814 1.916386 2.801483 0.315449 2.229362 1.401123 -2.639451 -10.112079 0.783192 -15.978835 1.655634 0.794353 38.917366 2.362619 -2.009266 16.710268 0.000000 0.000000 0.000000 -2.139623 2.138099 -14.912778 15.823494 -25.280777 3.570241 15.003991 9.211115 -24.355697 0.000000 0.000000 0.000000 -7.125000 0.000000 0.000000 -15.227088 54.439859 3.595109 0.000000 0.000000 0.000000 -7.549618 2.417232 14.691681 -18.888859 -29.280259 -4.976434 -17.970785 18.245908 -2.762242 0.000000 0.000000 0.000000 7.125000 0.000000 0.000000 6.597282 27.060966 2.891470
